<svg width="512" height="512" viewBox="0 0 512 512" fill="none" xmlns="http://www.w3.org/2000/svg">
<circle cx="256" cy="256" r="256" fill="#114F7F"/>
<path d="M218.93 212.172C233.13 212.172 244.394 216.473 252.722 225.075C261.187 233.676 265.42 245.623 265.42 260.915V327.68H230.604V265.625C230.604 258.252 228.624 252.586 224.665 248.627C220.842 244.531 215.517 242.483 208.69 242.483C201.863 242.483 196.47 244.531 192.511 248.627C188.688 252.586 186.777 258.252 186.777 265.625V327.68H151.961V265.625C151.961 258.252 149.981 252.586 146.021 248.627C142.198 244.531 136.874 242.483 130.047 242.483C123.22 242.483 117.827 244.531 113.868 248.627C110.045 252.586 108.133 258.252 108.133 265.625V327.68H73.1125V213.401H108.133V227.737C111.683 222.958 116.325 219.204 122.06 216.473C127.794 213.606 134.279 212.172 141.516 212.172C150.117 212.172 157.763 214.016 164.453 217.702C171.28 221.388 176.605 226.645 180.428 233.472C184.387 227.191 189.78 222.071 196.607 218.111C203.434 214.152 210.875 212.172 218.93 212.172Z" fill="white"/>
<path d="M336.402 329.318C326.435 329.318 317.561 327.611 309.778 324.198C301.996 320.785 295.852 316.142 291.346 310.272C286.841 304.264 284.315 297.574 283.769 290.201H318.38C318.789 294.161 320.633 297.369 323.909 299.827C327.186 302.284 331.214 303.513 335.993 303.513C340.362 303.513 343.707 302.694 346.028 301.056C348.485 299.281 349.714 297.028 349.714 294.297C349.714 291.02 348.007 288.631 344.594 287.129C341.181 285.491 335.651 283.716 328.005 281.804C319.813 279.893 312.987 277.913 307.525 275.865C302.064 273.681 297.354 270.336 293.394 265.83C289.435 261.188 287.455 254.976 287.455 247.193C287.455 240.64 289.23 234.7 292.78 229.376C296.466 223.914 301.791 219.613 308.754 216.473C315.854 213.333 324.251 211.763 333.945 211.763C348.281 211.763 359.545 215.313 367.737 222.412C376.065 229.512 380.844 238.933 382.073 250.675H349.714C349.168 246.715 347.393 243.575 344.389 241.254C341.522 238.933 337.699 237.772 332.921 237.772C328.825 237.772 325.684 238.592 323.5 240.23C321.315 241.732 320.223 243.848 320.223 246.579C320.223 249.856 321.93 252.313 325.343 253.952C328.893 255.59 334.354 257.228 341.727 258.867C350.192 261.051 357.087 263.236 362.412 265.42C367.737 267.468 372.379 270.882 376.338 275.66C380.434 280.302 382.55 286.583 382.687 294.502C382.687 301.192 380.775 307.2 376.953 312.524C373.266 317.713 367.873 321.809 360.773 324.812C353.81 327.816 345.686 329.318 336.402 329.318Z" fill="white"/>
<path d="M451.581 217.133C451.581 279.076 397.992 329.467 332.115 329.467C379.219 329.467 417.447 293.52 417.447 249.229C417.447 204.937 379.219 168.99 332.115 168.99H315.047V201.086L246.781 136.895L315.047 72.7041V104.799H332.115C397.992 104.799 451.581 155.191 451.581 217.133Z" fill="white"/>
</svg>
